<?xml version="1.0" encoding="UTF-8"?>
<svg version="1.1" xmlns="http://www.w3.org/2000/svg" width="2048" height="2048">
<path d="M0 0 C2.57985926 0.26821279 5.1608861 0.52181349 7.74243164 0.77325439 C92.44978185 9.0981055 174.77295618 28.6612249 392.43579102 123.25323486 C394.63599222 124.53763672 396.83653199 125.82145872 399.03735352 127.10479736 C420.02547609 139.37935374 440.49292019 152.34353788 460.43579102 166.25323486 C461.16636719 166.76096436 461.89694336 167.26869385 462.6496582 167.79180908 C473.08550767 175.05305168 483.3171939 182.55698483 493.43579102 190.25323486 C493.99717773 190.67814209 494.55856445 191.10304932 495.13696289 191.54083252 C503.78794969 198.09138465 512.22033809 204.89164143 520.61547852 211.76495361 C522.20840966 213.06732865 523.80608622 214.36389518 525.40454102 215.65948486 C535.77485383 224.0777388 545.91635111 232.75381515 555.74047852 241.80401611 C557.90996572 243.77541971 560.10006121 245.71157804 562.31079102 247.63604736 C575.08224948 258.78831531 587.06618407 270.78050598 599.06079102 282.75323486 C599.7190387 283.40889435 600.37728638 284.06455383 601.05548096 284.74008179 C613.72016599 297.36550412 613.72016599 297.36550412 618.95385742 303.52618408 C621.62757665 306.64214617 624.48691848 309.58645617 627.31079102 312.56573486 C632.23072875 317.79272146 636.88953784 323.11186348 641.36938477 328.72198486 C643.43691884 331.25461639 645.59692442 333.66054647 647.81079102 336.06573486 C651.79087568 340.43831923 655.44926598 344.99492777 659.0703125 349.66314697 C662.07107883 353.52881268 665.12540254 357.34230623 668.22973633 361.12530518 C674.69288329 369.0016655 680.91244139 377.02521263 686.94848633 385.23321533 C687.91807639 386.55008798 688.89121986 387.86435393 689.8684082 389.17559814 C715.24038339 423.22655055 737.75683672 459.6049954 758.11254883 496.83770752 C759.58519501 499.52596607 761.06955964 502.20762569 762.55297852 504.88995361 C769.49316478 517.50042847 775.98861119 530.24961073 782.05883789 543.30059814 C783.45775005 546.30032219 784.87538565 549.29068255 786.29516602 552.28057861 C798.74696895 578.67409067 809.6810544 605.7527966 819.43579102 633.25323486 C819.93931797 634.66341031 820.44290116 636.07356569 820.9465332 637.48370361 C829.48846093 661.46769154 836.88002606 685.65479725 843.43579102 710.25323486 C843.80378563 711.62384213 844.17178667 712.99444767 844.53979492 714.36505127 C866.59735973 796.92205011 876.27895245 882.94593936 753.16430664 1427.20880127 C751.59741226 1429.89583502 750.01703324 1432.5746227 748.43579102 1435.25323486 C747.15030132 1437.45616532 745.86516376 1439.65930128 744.58032227 1441.86260986 C732.306082 1462.84755338 719.3438368 1483.31273143 705.43579102 1503.25323486 C704.92806152 1503.98381104 704.42033203 1504.71438721 703.8972168 1505.46710205 C696.6359742 1515.90295152 689.13204105 1526.13463775 681.43579102 1536.25323486 C681.01088379 1536.81462158 680.58597656 1537.3760083 680.14819336 1537.95440674 C673.59764123 1546.60539354 666.79738445 1555.03778194 659.92407227 1563.43292236 C658.62169723 1565.02585351 657.3251307 1566.62353006 656.02954102 1568.22198486 C647.5440074 1578.67517845 638.78212957 1588.87371746 629.67797852 1598.79229736 C627.66550995 1601.00110433 625.69921086 1603.24016785 623.74829102 1605.50323486 C621.05472849 1608.60682447 618.21332615 1611.50072982 615.28004456 1614.37654114 C613.49097026 1616.19708502 611.82543926 1618.07595943 610.16601562 1620.01470947 C606.67702325 1624.02575278 603.01636848 1627.81782203 599.25219727 1631.56964111 C598.59299789 1632.22979721 597.93379852 1632.88995331 597.25462341 1633.57011414 C595.87182267 1634.95358992 594.48778026 1636.3358257 593.10253906 1637.71685791 C591.00348759 1639.81055156 588.90983162 1641.90953361 586.81665039 1644.00909424 C585.46215316 1645.36293057 584.1073457 1646.71645662 582.75219727 1648.06964111 C582.13735977 1648.68650284 581.52252228 1649.30336456 580.88905334 1649.93891907 C577.13879097 1653.66939481 573.27224541 1657.20656201 569.25205994 1660.64494324 C567.45571541 1662.23559197 565.78446425 1663.89790199 564.12329102 1665.62823486 C560.46947867 1669.34817956 556.45172223 1672.5352218 552.39282227 1675.80010986 C549.30926784 1678.35819729 546.36652689 1681.02391599 543.43579102 1683.75323486 C538.93329161 1687.93299764 534.31167881 1691.90495932 529.52563477 1695.75714111 C527.18967934 1697.64421509 524.87210404 1699.54664214 522.56469727 1701.46807861 C512.71529828 1709.66269583 502.69244385 1717.57481858 492.43579102 1725.25323486 C491.27877686 1726.11996826 491.27877686 1726.11996826 490.09838867 1727.00421143 C479.38053763 1735.01253024 468.53125177 1742.77818682 457.43579102 1750.25323486 C455.99768066 1751.22752441 455.99768066 1751.22752441 454.53051758 1752.22149658 C431.64334992 1767.71267285 408.33767381 1782.37442587 384.14038086 1795.75469971 C381.59301172 1797.16612341 379.05481682 1798.59280518 376.51782227 1800.02276611 C300.42227064 1842.57896331 218.18168429 1873.01860405 9.99829102 1913.56573486 C9.23955688 1913.64127594 8.48082275 1913.71681702 7.69909668 1913.79464722 C1.95005816 1914.35639555 -3.80413071 1914.82060073 -9.56420898 1915.25323486 C-10.68301453 1915.33937042 -11.80182007 1915.42550598 -12.95452881 1915.51425171 C-35.97588565 1917.23952927 -58.9292009 1917.6177671 -82.00919342 1917.57129288 C-84.8592179 1917.56564568 -87.70923641 1917.5628295 -90.55926514 1917.56021118 C-117.48199504 1917.52426591 -144.27746853 1917.22802032 -171.08605957 1914.50323486 C-173.67200216 1914.2423605 -176.25899814 1913.99490789 -178.84643555 1913.74932861 C-265.83257219 1905.39598203 -351.95439983 1885.27081894 -453.56420898 1845.25323486 C-455.36535156 1844.50420898 -455.36535156 1844.50420898 -457.20288086 1843.74005127 C-496.18844865 1827.43709026 -534.59250965 1808.63664547 -570.83569336 1786.88946533 C-573.51510057 1785.28268409 -576.2025264 1783.69018712 -578.89233398 1782.10089111 C-589.62180225 1775.74110987 -600.15246147 1769.11951379 -610.56420898 1762.25323486 C-611.4884668 1761.64729492 -611.4884668 1761.64729492 -612.43139648 1761.02911377 C-647.46735889 1738.05086053 -680.93186781 1712.72398607 -712.56420898 1685.25323486 C-713.32217773 1684.59710205 -714.08014648 1683.94096924 -714.86108398 1683.26495361 C-719.32722198 1679.37941356 -723.72263575 1675.41713717 -728.11499023 1671.44854736 C-730.30720112 1669.48359917 -732.522686 1667.55114444 -734.75170898 1665.62823486 C-737.88450288 1662.90352033 -740.80960211 1660.03251097 -743.71557617 1657.06939697 C-745.3802945 1655.43391894 -747.08638366 1653.93614913 -748.87280273 1652.43682861 C-754.92012199 1647.17689898 -760.51826176 1641.44806407 -766.17333984 1635.7744751 C-768.12217768 1633.82027863 -770.0763017 1631.87148339 -772.03100586 1629.92315674 C-783.35355666 1618.60602455 -783.35355666 1618.60602455 -788.19873047 1612.83306885 C-789.74019322 1611.04962428 -791.38159469 1609.40340205 -793.06420898 1607.75323486 C-796.10015823 1604.76451149 -798.90929557 1601.63617007 -801.68920898 1598.40948486 C-803.73779992 1596.05360529 -805.836239 1593.74816026 -807.93920898 1591.44073486 C-811.83784295 1587.12062696 -815.53924756 1582.67252105 -819.19702148 1578.14776611 C-821.24798195 1575.63990852 -823.33817701 1573.1726205 -825.45068359 1570.71661377 C-831.29318998 1563.91064304 -836.76190145 1556.86161708 -842.17358398 1549.71026611 C-845.02564011 1545.94479016 -847.93144088 1542.22468955 -850.85205078 1538.51226807 C-857.52218562 1530.02158741 -863.8603941 1521.35527423 -870.01049805 1512.48223877 C-871.63655733 1510.1494416 -873.28184689 1507.83119225 -874.93139648 1505.51495361 C-900.5653741 1469.42685559 -922.82597626 1430.89479385 -942.91333008 1391.48760986 C-944.46047138 1388.45647589 -946.02117042 1385.43268418 -947.58374023 1382.40948486 C-984.86630755 1309.70288435 -1010.23023296 1230.71201179 -1041.81420898 1053.69073486 C-1041.92990738 1052.57364639 -1041.92990738 1052.57364639 -1042.04794312 1051.43399048 C-1042.63220373 1045.71291628 -1043.11931346 1039.98674505 -1043.56420898 1034.25323486 C-1043.65141205 1033.14043152 -1043.73861511 1032.02762817 -1043.82846069 1030.88110352 C-1045.59491814 1007.54785778 -1045.92817233 984.27362999 -1045.882267 960.88051987 C-1045.87662336 957.95891006 -1045.87380498 955.03730607 -1045.8711853 952.11569214 C-1045.83571751 924.90477394 -1045.61983705 897.79744949 -1042.81744385 870.70465088 C-1042.55212638 868.1362704 -1042.29776644 865.56693997 -1042.04418945 862.99737549 C-1033.37675008 776.33720433 -1013.58724836 690.80128938 -973.56420898 589.25323486 C-973.05809082 588.03748779 -972.55197266 586.82174072 -972.03051758 585.56915283 C-963.87095667 566.05429038 -954.82378913 547.01273306 -945.45220947 528.05462646 C-944.14558363 525.40401439 -942.85361468 522.74630048 -941.56030273 520.08917236 C-935.0759093 506.84223458 -927.94458601 494.01917843 -920.56420898 481.25323486 C-919.98735352 480.24937744 -919.41049805 479.24552002 -918.81616211 478.21124268 C-893.10941377 433.48718162 -863.73087086 390.9872872 -831.05249023 351.07354736 C-829.7501152 349.48061622 -828.45354866 347.88293966 -827.15795898 346.28448486 C-818.50461207 335.62456475 -809.57923873 325.22444517 -800.23217773 315.16729736 C-798.17456164 312.91988652 -796.15785748 310.65275366 -794.15795898 308.35479736 C-783.33060949 295.94270833 -771.69433375 284.28123609 -760.06420898 272.62823486 C-759.4563858 272.01782349 -758.84856262 271.40741211 -758.22232056 270.77850342 C-746.56819463 259.08525847 -746.56819463 259.08525847 -740.33959961 253.77911377 C-737.15311052 251.04045084 -734.12135426 248.13442072 -731.06420898 245.25323486 C-725.97842038 240.48725621 -720.87711233 235.76667275 -715.56420898 231.25323486 C-714.65026367 230.47206299 -713.73631836 229.69089111 -712.79467773 228.88604736 C-700.25907754 218.20288193 -687.612949 207.64996764 -674.47729492 197.70977783 C-672.2287627 195.99784021 -669.99432485 194.26821069 -667.75952148 192.53839111 C-657.67862259 184.76000673 -647.46286694 177.30431343 -636.90014648 170.19464111 C-633.68218043 168.02668183 -630.52044006 165.79914795 -627.38769531 163.51031494 C-593.29130078 138.61348485 -555.45288209 118.07097432 -517.90014648 98.95489502 C-514.93857745 97.44420004 -511.98477479 95.91958022 -509.03295898 94.38995361 C-432.47510174 55.02537932 -347.66868397 28.18167772 -175.85498047 0.46612549 C-173.60487309 0.25701394 -171.35707797 0.03120031 -169.10913086 -0.19989014 C-113.80454353 -5.81319838 -55.28696431 -5.80407102 0 0 Z M-431.56420898 493.25323486 C-431.56420898 799.49323486 -431.56420898 1105.73323486 -431.56420898 1421.25323486 C-369.19420898 1421.25323486 -306.82420898 1421.25323486 -242.56420898 1421.25323486 C-242.56420898 1301.13323486 -242.56420898 1181.01323486 -242.56420898 1057.25323486 C-207.62545898 1057.35635986 -172.68670898 1057.45948486 -136.68920898 1057.56573486 C-120.20749756 1057.60307739 -120.20749756 1057.60307739 -103.39282227 1057.64117432 C-89.86279297 1057.69110107 -89.86279297 1057.69110107 -83.50704956 1057.71824646 C-79.11568144 1057.73601441 -74.72437857 1057.74575219 -70.33297729 1057.75035095 C-21.90257778 1057.8088196 -21.90257778 1057.8088196 -1.56420898 1061.25323486 C-0.67591022 1061.40267862 0.21238853 1061.55212238 1.12760544 1061.70609474 C24.49575415 1065.73137927 49.96220731 1074.27375486 64.43579102 1094.25323486 C74.92569079 1110.30627131 79.83318546 1127.54970767 83.43579102 1146.25323486 C83.59176758 1147.06260498 83.74774414 1147.8719751 83.90844727 1148.70587158 C90.51675913 1184.61252105 88.8374182 1222.20853478 89.30953026 1258.5933609 C89.92652656 1306.14359336 92.30245949 1351.94510463 104.43579102 1398.25323486 C104.71132812 1399.30768799 104.98686523 1400.36214111 105.27075195 1401.44854736 C106.56801473 1406.37964566 107.88362321 1411.30585538 109.23657227 1416.22198486 C109.54848511 1417.35797119 109.54848511 1417.35797119 109.86669922 1418.51690674 C110.29386246 1420.2618747 110.29386246 1420.2618747 111.43579102 1421.25323486 C114.17955994 1421.35110706 116.89815079 1421.38316829 119.64234924 1421.37348938 C120.51300032 1421.3743438 121.3836514 1421.37519823 122.28068584 1421.37607855 C125.22116124 1421.37773603 128.16158057 1421.37220762 131.10205078 1421.36676025 C133.20069375 1421.36647841 135.29933682 1421.36663605 137.39797974 1421.36720276 C143.11468891 1421.36749086 148.83137731 1421.36159214 154.54808164 1421.3546288 C160.51520258 1421.34839731 166.48232394 1421.34779163 172.44944763 1421.34660339 C183.75773731 1421.34348947 195.06601737 1421.33527527 206.3743028 1421.3252539 C219.24469653 1421.31409465 232.1150907 1421.30858279 244.98548806 1421.30355847 C271.46892772 1421.2930927 297.95235883 1421.27549209 324.43579102 1421.25323486 C324.59794947 1417.53499898 324.69635714 1413.81767637 324.78344727 1410.09698486 C324.83005493 1409.04607666 324.8766626 1407.99516846 324.92468262 1406.91241455 C325.14557746 1401.39737891 325.14557746 1401.39737891 323.28982544 1396.35189819 C320.17261674 1393.18689505 316.33913608 1391.28336659 312.43579102 1389.25323486 C295.86554253 1376.05840736 289.3173175 1352.4744579 286.78735352 1332.37042236 C284.57201684 1312.6743078 284.28674177 1292.8905406 284.20599556 1273.09129715 C284.18925257 1269.12443707 284.16619789 1265.15763994 284.14109802 1261.19082642 C284.07095147 1249.9260308 284.01059271 1238.66119677 283.95898438 1227.39630127 C283.9302442 1221.13834092 283.89465152 1214.88045294 283.85233063 1208.62256944 C283.83045376 1205.3410827 283.81287164 1202.05966917 283.80188179 1198.77812576 C283.72167797 1175.16823861 282.96622298 1151.4158965 279.68579102 1128.00323486 C279.51732666 1126.78200928 279.3488623 1125.56078369 279.17529297 1124.30255127 C272.42576432 1077.80446216 254.99958478 1034.95803077 216.49829102 1005.94073486 C200.98782066 994.5462392 183.98514883 986.03353337 166.43579102 978.25323486 C167.15992188 977.95828125 167.88405273 977.66332764 168.63012695 977.35943604 C196.05106913 966.07791606 220.82913908 952.72810979 242.43579102 932.25323486 C243.33040039 931.41147705 244.22500977 930.56971924 245.14672852 929.70245361 C283.20405156 892.87106674 303.98693964 834.02168719 308.43579102 782.25323486 C308.54536133 781.05698486 308.65493164 779.86073486 308.76782227 778.62823486 C314.71832014 703.7313016 289.85310029 634.05996979 241.43579102 577.25323486 C220.42910005 552.98964095 194.661839 533.59767091 165.43579102 520.25323486 C164.72551758 519.92371826 164.01524414 519.59420166 163.28344727 519.25469971 C120.44695281 499.57739085 69.16368894 493.35140272 -431.56420898 493.25323486 Z " fill="#E53834" transform="translate(1109.564208984375,66.74676513671875)"/>
<path d="M0 0 C39.414375 -0.061875 78.82875 -0.12375 119.4375 -0.1875 C131.84400146 -0.21481201 144.25050293 -0.24212402 157.03295898 -0.27026367 C172.28137207 -0.28381348 172.28137207 -0.28381348 179.43885803 -0.28633118 C184.39613442 -0.28910567 189.35331265 -0.30026571 194.31056213 -0.31672668 C200.66398813 -0.33753929 207.01727455 -0.34343061 213.37073147 -0.33921683 C215.68359955 -0.34009595 217.9964733 -0.34590389 220.30931175 -0.35764539 C258.63367007 -0.54292449 298.7111906 4.40643184 327.36328125 32.30078125 C351.66744624 57.94818161 358.22028167 94.22310259 358.25 128.375 C358.25067474 129.0773175 358.25134949 129.77963501 358.25204468 130.50323486 C358.20279569 162.95325792 351.09221746 193.2490224 328.48828125 217.5625 C296.44801298 248.94888525 247.33318772 250.18809355 205.25390625 250.11352539 C202.96915183 250.11321845 200.68439732 250.11335358 198.39964294 250.11389065 C192.32586863 250.11411479 186.25211435 250.10835308 180.17834473 250.10128021 C174.46199486 250.09555103 168.74564966 250.09531524 163.02929688 250.09460449 C146.35286197 250.08937402 129.67643073 250.07541276 113 250.0625 C75.71 250.041875 38.42 250.02125 0 250 C0 167.5 0 85 0 0 Z " fill="#E53834" transform="translate(867,721)"/>
</svg>
